<svg xmlns="http://www.w3.org/2000/svg" width="18" height="18" viewBox="0 0 18 18"><defs><style>.a,.b,.c,.d,.e,.f,.g{fill:#fff}.a{opacity:.2}.a,.b,.c,.d,.e,.f{isolation:isolate}.b{opacity:.33}.c{opacity:.47}.d{opacity:.6}.e{opacity:.7}.f{opacity:.8}</style></defs><title>S ColorWheel 18 N</title><rect id="Canvas" width="18" height="18" fill="#ff13dc" opacity="0"/><path d="M16,9a6.97651,6.97651,0,0,0-2.057-4.95L9,9Z" class="a"/><path d="M9,9l4.9595,4.9345A6.978,6.978,0,0,0,16,9Z" class="b"/><path d="M9,9v7a6.97752,6.97752,0,0,0,4.937-2.0435Z" class="c"/><path d="M9,16V9L4.05,13.9445A6.98,6.98,0,0,0,9,16Z" class="d"/><path d="M9,9H2a6.97949,6.97949,0,0,0,2.05,4.9445Z" class="e"/><path d="M9,9,4.045,4.061A6.9765,6.9765,0,0,0,2,9Z" class="f"/><path d="M9,1a8,8,0,1,0,8,8A8,8,0,0,0,9,1ZM9,16A6.9955,6.9955,0,0,1,4.035,4.072L8.9695,9V2H9A7,7,0,0,1,9,16Z" class="g"/></svg>